HIERARCHY
ROOT Hips
{
	OFFSET 0.000000 0.000000 0.000000
	CHANNELS 6 Xposition Yposition Zposition Xrotation Yrotation Zrotation
	JOINT LeftUpLeg_virtual
	{
		OFFSET 0.000000 0.000000 0.000000
		CHANNELS 3 Xrotation Yrotation Zrotation
		JOINT LeftUpLeg
		{
			OFFSET 11.394100 -6.187798 -0.413800
			CHANNELS 3 Xrotation Yrotation Zrotation
			JOINT LeftLeg
			{
				OFFSET 0.430247 -32.302673 3.732800
				CHANNELS 3 Xrotation Yrotation Zrotation
				JOINT LeftFoot
				{
					OFFSET -0.430247 -48.264931 -6.423300
					CHANNELS 3 Xrotation Yrotation Zrotation
					JOINT LeftToeBase
					{
						OFFSET 4.230900 -16.068199 23.438400
						CHANNELS 3 Xrotation Yrotation Zrotation
						JOINT LeftToe_End
						{
							OFFSET 4.510700 0.695400 19.974600
							CHANNELS 3 Xrotation Yrotation Zrotation
							End Site
							{
								OFFSET 0 0 0
							}
						}
					}
				}
			}
		}
	}
	JOINT RightUpLeg_virtual
	{
		OFFSET 0.000000 0.000000 0.000000
		CHANNELS 3 Xrotation Yrotation Zrotation
		JOINT RightUpLeg
		{
			OFFSET -11.333700 -6.187798 -0.413800
			CHANNELS 3 Xrotation Yrotation Zrotation
			JOINT RightLeg
			{
				OFFSET -0.430392 -32.302628 3.733000
				CHANNELS 3 Xrotation Yrotation Zrotation
				JOINT RightFoot
				{
					OFFSET 0.430392 -48.264973 -6.423500
					CHANNELS 3 Xrotation Yrotation Zrotation
					JOINT RightToeBase
					{
						OFFSET -4.230900 -16.068199 23.438400
						CHANNELS 3 Xrotation Yrotation Zrotation
						JOINT RightToe_End
						{
							OFFSET -4.510700 0.695400 19.974600
							CHANNELS 3 Xrotation Yrotation Zrotation
							End Site
							{
								OFFSET 0 0 0
							}
						}
					}
				}
			}
		}
	}
	JOINT Spine_virtual
	{
		OFFSET 0.000000 0.000000 0.000000
		CHANNELS 3 Xrotation Yrotation Zrotation
		JOINT Spine
		{
			OFFSET -0.002400 12.777504 0.315300
			CHANNELS 3 Xrotation Yrotation Zrotation
			JOINT Spine1
			{
				OFFSET -0.002067 5.816869 0.032633
				CHANNELS 3 Xrotation Yrotation Zrotation
				JOINT Spine1_split
				{
					OFFSET -0.002067 5.816869 0.032633
					CHANNELS 3 Xrotation Yrotation Zrotation
					JOINT Spine2
					{
						OFFSET -0.002067 5.816869 0.032633
						CHANNELS 3 Xrotation Yrotation Zrotation
						JOINT Neck_virtual
						{
							OFFSET 0.000000 0.000000 0.000000
							CHANNELS 3 Xrotation Yrotation Zrotation
							JOINT Neck
							{
								OFFSET -0.003700 21.199493 -0.826900
								CHANNELS 3 Xrotation Yrotation Zrotation
								JOINT Head
								{
									OFFSET 0.000000 20.442200 4.834800
									CHANNELS 3 Xrotation Yrotation Zrotation
									JOINT HeadTop_End
									{
										OFFSET 0.000000 34.668396 4.968400
										CHANNELS 3 Xrotation Yrotation Zrotation
										End Site
										{
											OFFSET 0 0 0
										}
									}
								}
							}
						}
						JOINT LeftShoulder_virtual
						{
							OFFSET 0.000000 0.000000 0.000000
							CHANNELS 3 Xrotation Yrotation Zrotation
							JOINT LeftShoulder
							{
								OFFSET 3.288150 8.794197 -1.372250
								CHANNELS 3 Xrotation Yrotation Zrotation
								JOINT LeftShoulder_split
								{
									OFFSET 3.288150 8.794197 -1.372250
									CHANNELS 3 Xrotation Yrotation Zrotation
									JOINT LeftArm
									{
										OFFSET 11.953299 -2.279007 -0.146200
										CHANNELS 3 Xrotation Yrotation Zrotation
										JOINT LeftForeArm
										{
											OFFSET 18.448900 0.000000 0.000000
											CHANNELS 3 Xrotation Yrotation Zrotation
											JOINT LeftHand
											{
												OFFSET 29.527798 0.000000 0.000000
												CHANNELS 3 Xrotation Yrotation Zrotation
												End Site
												{
													OFFSET 0 0 0
												}
											}
										}
									}
								}
							}
						}
						JOINT RightShoulder_virtual
						{
							OFFSET 0.000000 0.000000 0.000000
							CHANNELS 3 Xrotation Yrotation Zrotation
							JOINT RightShoulder
							{
								OFFSET -3.249400 8.794197 -1.372250
								CHANNELS 3 Xrotation Yrotation Zrotation
								JOINT RightShoulder_split
								{
									OFFSET -3.249400 8.794197 -1.372250
									CHANNELS 3 Xrotation Yrotation Zrotation
									JOINT RightArm
									{
										OFFSET -11.953299 -2.279007 -0.146200
										CHANNELS 3 Xrotation Yrotation Zrotation
										JOINT RightForeArm
										{
											OFFSET -18.448900 0.000000 0.000000
											CHANNELS 3 Xrotation Yrotation Zrotation
											JOINT RightHand
											{
												OFFSET -29.527802 0.000000 0.000000
												CHANNELS 3 Xrotation Yrotation Zrotation
												End Site
												{
													OFFSET 0 0 0
												}
											}
										}
									}
								}
							}
						}
					}
				}
			}
		}
	}
}
MOTION
Frames: 4
Frame Time: 0.03333333
16.437281 38.834137 394.210449 0.000000 0.000000 0.000000 44.456807 -47.391691 86.684567 -69.274722 -8.095066 6.107448 32.740331 -5.061170 6.649558 4.923314 9.019069 -5.217825 7.054104 5.025380 -31.036250 0.000000 0.000000 0.000000 44.653967 -51.484204 92.745172 -126.488137 -7.357843 -28.889446 125.820404 6.727800 -7.773142 62.575987 27.550517 46.535984 8.195342 -9.033635 7.696747 0.000000 0.000000 0.000000 46.773675 -53.452678 89.039432 8.331824 -10.757837 -4.904195 22.071401 -11.391958 -0.287582 -0.468886 2.190669 -0.935302 0.000000 0.000000 0.000000 16.849776 -12.519099 -0.097672 13.755033 3.002480 -6.670020 -7.294775 25.236622 -18.768791 0.000000 0.000000 0.000000 20.802016 -12.283751 1.317412 1.194136 -1.924154 -19.816129 -1.872868 -0.013146 2.043095 5.791609 2.749177 -56.525167 29.181491 -14.898847 -4.637710 0.000000 0.000000 0.000000 20.313766 -12.775479 -0.104381 3.845403 22.139112 3.361087 4.849478 8.792619 6.592801 -31.923929 -8.817195 -0.428001 -27.525346 19.148917 3.945647 0.000000 0.000000 0.000000 
16.261225 39.498955 408.025146 0.000000 0.000000 0.000000 46.691006 -47.520116 83.741487 -76.747018 -10.539163 7.532039 35.978455 -5.342092 2.098714 5.173563 8.512340 -8.293842 8.641369 4.265597 -33.501159 0.000000 0.000000 0.000000 43.805377 -50.708168 87.822258 -128.814622 -2.969413 -35.738234 126.867157 10.227823 -9.626004 62.049639 33.095432 52.237355 2.363934 -11.031962 8.552739 0.000000 0.000000 0.000000 45.405878 -53.361119 83.326129 9.522100 -8.931359 -4.327817 21.828035 -9.334343 -0.367975 -1.172527 2.227319 -0.612767 0.000000 0.000000 0.000000 16.638305 -10.433072 -0.396008 11.477311 3.219440 -4.840772 -11.071527 24.487026 -15.427756 0.000000 0.000000 0.000000 20.035634 -10.212712 0.700681 1.029991 -1.996040 -20.167776 -1.175866 0.484109 2.359167 9.325478 3.941473 -56.018930 30.780148 -15.190037 -5.211887 0.000000 0.000000 0.000000 19.917118 -10.586056 -0.326880 3.067000 22.226189 4.724609 5.274341 8.081657 6.823484 -34.540403 -11.749091 2.504894 -28.484162 17.512458 2.669405 0.000000 0.000000 0.000000 
15.772460 40.288521 421.804626 0.000000 0.000000 0.000000 46.275017 -47.985750 78.053817 -86.228222 -10.949928 11.100382 42.986841 -6.392109 -2.867969 6.828106 6.437366 -9.501750 9.588807 3.838494 -34.044320 0.000000 0.000000 0.000000 42.133303 -50.587625 80.278191 -128.002540 -0.505135 -41.442644 125.426288 12.652072 -9.536576 61.581231 33.459317 55.649776 -1.770203 -13.016986 10.356528 0.000000 0.000000 0.000000 41.978558 -52.995407 75.272742 10.723221 -6.512453 -3.805860 20.917166 -6.986078 -0.788239 -1.247026 2.408894 0.232222 0.000000 0.000000 0.000000 16.092006 -8.086872 -1.023164 8.254269 3.368959 -2.787866 -14.883146 23.057295 -11.958907 0.000000 0.000000 0.000000 18.707637 -7.875678 -0.403071 0.826404 -1.838869 -20.420264 0.283658 -0.683566 2.152381 13.294302 5.261842 -53.458699 32.262720 -17.331202 -4.917875 0.000000 0.000000 0.000000 19.112444 -8.011099 -0.920640 2.278047 21.455958 6.473090 6.411252 7.604508 6.238673 -34.564370 -17.108538 10.628841 -29.054648 20.524947 2.839271 0.000000 0.000000 0.000000 
14.972404 41.303860 435.228760 0.000000 0.000000 0.000000 43.364468 -48.537380 69.604443 -96.991937 -9.894572 17.113261 54.006142 -8.424623 -7.141778 9.907694 2.897175 -8.660477 7.844427 4.415839 -32.403647 0.000000 0.000000 0.000000 38.805614 -50.497969 69.921712 -123.268017 -1.550084 -46.085735 121.345209 13.830254 -6.919702 60.475403 27.884217 56.182906 -1.672034 -14.307810 13.319616 0.000000 0.000000 0.000000 37.129304 -52.064237 65.559243 11.627741 -3.895720 -3.253961 19.487694 -4.836618 -1.413264 -0.913649 2.779181 1.124451 0.000000 0.000000 0.000000 15.307403 -5.949622 -1.789911 4.461040 3.706925 -0.896574 -18.096378 21.910140 -8.940622 0.000000 0.000000 0.000000 17.091799 -5.749013 -1.713465 0.684546 -1.389776 -20.167243 2.385415 -2.698779 1.692501 16.684378 6.830901 -48.414450 33.339174 -20.884167 -3.931769 0.000000 0.000000 0.000000 18.071195 -5.552768 -1.687219 1.677604 20.090161 8.017228 8.149077 7.585789 5.583106 -29.525067 -23.522890 24.247216 -29.319311 28.332439 4.531002 0.000000 0.000000 0.000000 
